REM DIRINDEX 1\2,1\3
REM DIRNAME cjc143,folder01,folder02
TITLE ""
FILE "2000 phrasesTrack10.mp3" MP3
  TRACK 01 AUDIO
    TITLE "2:cjc143_0401"
    INDEX 01 00:00:00
  TRACK 02 AUDIO
    TITLE "0:"
    INDEX 01 00:00:58
  TRACK 03 AUDIO
    TITLE "2:cjc143_0402"
    INDEX 01 00:01:26
  TRACK 04 AUDIO
    TITLE "0:"
    INDEX 01 00:02:67
  TRACK 05 AUDIO
    TITLE "2:cjc143_0403"
    INDEX 01 00:03:06
  TRACK 06 AUDIO
    TITLE "0:"
    INDEX 01 00:04:33
  TRACK 07 AUDIO
    TITLE "2:cjc143_0404"
    INDEX 01 00:04:50
  TRACK 08 AUDIO
    TITLE "0:"
    INDEX 01 00:06:06
  TRACK 09 AUDIO
    TITLE "2:cjc143_0405"
    INDEX 01 00:06:20
  TRACK 10 AUDIO
    TITLE "0:"
    INDEX 01 00:07:54
  TRACK 11 AUDIO
    TITLE "2:cjc143_0406"
    INDEX 01 00:07:68
  TRACK 12 AUDIO
    TITLE "0:"
    INDEX 01 00:09:63
  TRACK 13 AUDIO
    TITLE "2:cjc143_0407"
    INDEX 01 00:10:06
  TRACK 14 AUDIO
    TITLE "0:"
    INDEX 01 00:11:37
  TRACK 15 AUDIO
    TITLE "2:cjc143_0408"
    INDEX 01 00:11:50
  TRACK 16 AUDIO
    TITLE "0:"
    INDEX 01 00:13:02
  TRACK 17 AUDIO
    TITLE "2:cjc143_0409"
    INDEX 01 00:13:16
  TRACK 18 AUDIO
    TITLE "0:"
    INDEX 01 00:14:53
  TRACK 19 AUDIO
    TITLE "2:cjc143_0410"
    INDEX 01 00:14:68
  TRACK 20 AUDIO
    TITLE "0:"
    INDEX 01 00:17:12
  TRACK 21 AUDIO
    TITLE "2:cjc143_0411"
    INDEX 01 00:17:29
  TRACK 22 AUDIO
    TITLE "0:"
    INDEX 01 00:18:60
  TRACK 23 AUDIO
    TITLE "2:cjc143_0412"
    INDEX 01 00:19:05
  TRACK 24 AUDIO
    TITLE "0:"
    INDEX 01 00:20:37
  TRACK 25 AUDIO
    TITLE "2:cjc143_0413"
    INDEX 01 00:20:53
  TRACK 26 AUDIO
    TITLE "0:"
    INDEX 01 00:22:15
  TRACK 27 AUDIO
    TITLE "2:cjc143_0414"
    INDEX 01 00:22:32
  TRACK 28 AUDIO
    TITLE "0:"
    INDEX 01 00:24:14
  TRACK 29 AUDIO
    TITLE "2:cjc143_0415"
    INDEX 01 00:24:29
  TRACK 30 AUDIO
    TITLE "0:"
    INDEX 01 00:25:72
  TRACK 31 AUDIO
    TITLE "2:cjc143_0416"
    INDEX 01 00:26:11
  TRACK 32 AUDIO
    TITLE "0:"
    INDEX 01 00:27:47
  TRACK 33 AUDIO
    TITLE "2:cjc143_0417"
    INDEX 01 00:27:61
  TRACK 34 AUDIO
    TITLE "0:"
    INDEX 01 00:29:19
  TRACK 35 AUDIO
    TITLE "2:cjc143_0418"
    INDEX 01 00:29:40
  TRACK 36 AUDIO
    TITLE "0:"
    INDEX 01 00:31:35
  TRACK 37 AUDIO
    TITLE "2:cjc143_0419"
    INDEX 01 00:31:53
  TRACK 38 AUDIO
    TITLE "0:"
    INDEX 01 00:33:05
  TRACK 39 AUDIO
    TITLE "2:cjc143_0420"
    INDEX 01 00:33:28
  TRACK 40 AUDIO
    TITLE "0:"
    INDEX 01 00:34:57
  TRACK 41 AUDIO
    TITLE "2:cjc143_0421"
    INDEX 01 00:35:00
  TRACK 42 AUDIO
    TITLE "0:"
    INDEX 01 00:36:31
  TRACK 43 AUDIO
    TITLE "2:cjc143_0422"
    INDEX 01 00:36:44
  TRACK 44 AUDIO
    TITLE "0:"
    INDEX 01 00:37:67
  TRACK 45 AUDIO
    TITLE "2:cjc143_0423"
    INDEX 01 00:38:06
  TRACK 46 AUDIO
    TITLE "0:"
    INDEX 01 00:39:47
  TRACK 47 AUDIO
    TITLE "2:cjc143_0424"
    INDEX 01 00:39:62
  TRACK 48 AUDIO
    TITLE "0:"
    INDEX 01 00:41:16
  TRACK 49 AUDIO
    TITLE "2:cjc143_0425"
    INDEX 01 00:41:30
  TRACK 50 AUDIO
    TITLE "0:"
    INDEX 01 00:42:63
  TRACK 51 AUDIO
    TITLE "2:cjc143_0426"
    INDEX 01 00:43:03
  TRACK 52 AUDIO
    TITLE "0:"
    INDEX 01 00:44:48
  TRACK 53 AUDIO
    TITLE "2:cjc143_0427"
    INDEX 01 00:44:61
  TRACK 54 AUDIO
    TITLE "0:"
    INDEX 01 00:46:00
  TRACK 55 AUDIO
    TITLE "2:cjc143_0428"
    INDEX 01 00:46:17
  TRACK 56 AUDIO
    TITLE "0:"
    INDEX 01 00:47:44
  TRACK 57 AUDIO
    TITLE "2:cjc143_0429"
    INDEX 01 00:47:58
  TRACK 58 AUDIO
    TITLE "0:"
    INDEX 01 00:49:27
  TRACK 59 AUDIO
    TITLE "2:cjc143_0430"
    INDEX 01 00:49:39
  TRACK 60 AUDIO
    TITLE "0:"
    INDEX 01 00:50:64
  TRACK 61 AUDIO
    TITLE "2:cjc143_0431"
    INDEX 01 00:51:38
  TRACK 62 AUDIO
    TITLE "0:"
    INDEX 01 00:53:33
  TRACK 63 AUDIO
    TITLE "2:cjc143_0432"
    INDEX 01 00:53:47
  TRACK 64 AUDIO
    TITLE "0:"
    INDEX 01 00:54:68
  TRACK 65 AUDIO
    TITLE "2:cjc143_0433"
    INDEX 01 00:55:06
  TRACK 66 AUDIO
    TITLE "0:"
    INDEX 01 00:56:31
  TRACK 67 AUDIO
    TITLE "2:cjc143_0434"
    INDEX 01 00:56:49
  TRACK 68 AUDIO
    TITLE "0:"
    INDEX 01 00:58:13
  TRACK 69 AUDIO
    TITLE "2:cjc143_0435"
    INDEX 01 00:58:26
  TRACK 70 AUDIO
    TITLE "0:"
    INDEX 01 00:59:65
  TRACK 71 AUDIO
    TITLE "2:cjc143_0436"
    INDEX 01 01:00:04
  TRACK 72 AUDIO
    TITLE "0:"
    INDEX 01 01:01:31
  TRACK 73 AUDIO
    TITLE "2:cjc143_0437"
    INDEX 01 01:01:44
  TRACK 74 AUDIO
    TITLE "0:"
    INDEX 01 01:03:12
  TRACK 75 AUDIO
    TITLE "2:cjc143_0438"
    INDEX 01 01:03:24
  TRACK 76 AUDIO
    TITLE "0:"
    INDEX 01 01:04:52
  TRACK 77 AUDIO
    TITLE "2:cjc143_0439"
    INDEX 01 01:05:21
  TRACK 78 AUDIO
    TITLE "0:"
    INDEX 01 01:06:43
  TRACK 79 AUDIO
    TITLE "2:cjc143_0440"
    INDEX 01 01:06:57
  TRACK 80 AUDIO
    TITLE "0:"
    INDEX 01 01:08:25
  TRACK 81 AUDIO
    TITLE "2:cjc143_0441"
    INDEX 01 01:08:40
  TRACK 82 AUDIO
    TITLE "0:"
    INDEX 01 01:09:63
  TRACK 83 AUDIO
    TITLE "2:cjc143_0442"
    INDEX 01 01:10:02
  TRACK 84 AUDIO
    TITLE "0:"
    INDEX 01 01:11:29
  TRACK 85 AUDIO
    TITLE "2:cjc143_0443"
    INDEX 01 01:11:41
  TRACK 86 AUDIO
    TITLE "0:"
    INDEX 01 01:12:66
  TRACK 87 AUDIO
    TITLE "2:cjc143_0444"
    INDEX 01 01:13:02
  TRACK 88 AUDIO
    TITLE "0:"
    INDEX 01 01:14:23
  TRACK 89 AUDIO
    TITLE "2:cjc143_0445"
    INDEX 01 01:14:37
  TRACK 90 AUDIO
    TITLE "0:"
    INDEX 01 01:16:11
  TRACK 91 AUDIO
    TITLE "2:cjc143_0446"
    INDEX 01 01:16:24
  TRACK 92 AUDIO
    TITLE "0:"
    INDEX 01 01:18:00
  TRACK 93 AUDIO
    TITLE "2:cjc143_0447"
    INDEX 01 01:18:17
  TRACK 94 AUDIO
    TITLE "0:"
    INDEX 01 01:19:60
  TRACK 95 AUDIO
    TITLE "2:cjc143_0448"
    INDEX 01 01:20:08
  TRACK 96 AUDIO
    TITLE "0:"
    INDEX 01 01:21:59
  TRACK 97 AUDIO
    TITLE "2:cjc143_0449"
    INDEX 01 01:22:03
  TRACK 98 AUDIO
    TITLE "0:"
    INDEX 01 01:23:24
  TRACK 99 AUDIO
    TITLE "2:cjc143_0450"
    INDEX 01 01:24:24
  TRACK 100 AUDIO
    TITLE "0:"
    INDEX 01 01:25:70
  TRACK 101 AUDIO
    TITLE "2:cjc143_0451"
    INDEX 01 01:26:11
  TRACK 102 AUDIO
    TITLE "0:"
    INDEX 01 01:27:57
  TRACK 103 AUDIO
    TITLE "2:cjc143_0452"
    INDEX 01 01:28:04
  TRACK 104 AUDIO
    TITLE "0:"
    INDEX 01 01:29:43
  TRACK 105 AUDIO
    TITLE "2:cjc143_0453"
    INDEX 01 01:29:56
  TRACK 106 AUDIO
    TITLE "0:"
    INDEX 01 01:31:08
  TRACK 107 AUDIO
    TITLE "2:cjc143_0454"
    INDEX 01 01:31:22
  TRACK 108 AUDIO
    TITLE "0:"
    INDEX 01 01:32:51
  TRACK 109 AUDIO
    TITLE "2:cjc143_0455"
    INDEX 01 01:32:64
  TRACK 110 AUDIO
    TITLE "0:"
    INDEX 01 01:34:03
  TRACK 111 AUDIO
    TITLE "2:cjc143_0456"
    INDEX 01 01:34:46
  TRACK 112 AUDIO
    TITLE "0:"
    INDEX 01 01:35:71
  TRACK 113 AUDIO
    TITLE "2:cjc143_0457"
    INDEX 01 01:36:07
  TRACK 114 AUDIO
    TITLE "0:"
    INDEX 01 01:37:13
  TRACK 115 AUDIO
    TITLE "2:cjc143_0458"
    INDEX 01 01:37:28
  TRACK 116 AUDIO
    TITLE "0:"
    INDEX 01 01:38:55
  TRACK 117 AUDIO
    TITLE "2:cjc143_0459"
    INDEX 01 01:38:69
  TRACK 118 AUDIO
    TITLE "0:"
    INDEX 01 01:40:21
  TRACK 119 AUDIO
    TITLE "2:cjc143_0460"
    INDEX 01 01:40:35
  TRACK 120 AUDIO
    TITLE "0:"
    INDEX 01 01:41:56
  TRACK 121 AUDIO
    TITLE "2:cjc143_0461"
    INDEX 01 01:42:22
  TRACK 122 AUDIO
    TITLE "0:"
    INDEX 01 01:43:43
  TRACK 123 AUDIO
    TITLE "2:cjc143_0462"
    INDEX 01 01:43:56
  TRACK 124 AUDIO
    TITLE "0:"
    INDEX 01 01:45:14
  TRACK 125 AUDIO
    TITLE "2:cjc143_0463"
    INDEX 01 01:45:26
  TRACK 126 AUDIO
    TITLE "0:"
    INDEX 01 01:46:61
  TRACK 127 AUDIO
    TITLE "2:cjc143_0464"
    INDEX 01 01:46:74
  TRACK 128 AUDIO
    TITLE "0:"
    INDEX 01 01:48:38
  TRACK 129 AUDIO
    TITLE "2:cjc143_0465"
    INDEX 01 01:48:52
  TRACK 130 AUDIO
    TITLE "0:"
    INDEX 01 01:49:73
  TRACK 131 AUDIO
    TITLE "2:cjc143_0466"
    INDEX 01 01:50:11
  TRACK 132 AUDIO
    TITLE "0:"
    INDEX 01 01:51:50
  TRACK 133 AUDIO
    TITLE "2:cjc143_0467"
    INDEX 01 01:51:64
  TRACK 134 AUDIO
    TITLE "0:"
    INDEX 01 01:53:29
  TRACK 135 AUDIO
    TITLE "2:cjc143_0468"
    INDEX 01 01:53:43
  TRACK 136 AUDIO
    TITLE "0:"
    INDEX 01 01:54:74
  TRACK 137 AUDIO
    TITLE "2:cjc143_0469"
    INDEX 01 01:55:16
  TRACK 138 AUDIO
    TITLE "0:"
    INDEX 01 01:56:43
  TRACK 139 AUDIO
    TITLE "2:cjc143_0470"
    INDEX 01 01:56:57
  TRACK 140 AUDIO
    TITLE "0:"
    INDEX 01 01:57:74
  TRACK 141 AUDIO
    TITLE "2:cjc143_0471"
    INDEX 01 01:58:01
  TRACK 142 AUDIO
    TITLE "0:"
    INDEX 01 01:59:44
  TRACK 143 AUDIO
    TITLE "2:cjc143_0472"
    INDEX 01 01:59:59
  TRACK 144 AUDIO
    TITLE "0:"
    INDEX 01 02:01:07
  TRACK 145 AUDIO
    TITLE "2:cjc143_0473"
    INDEX 01 02:01:27
  TRACK 146 AUDIO
    TITLE "0:"
    INDEX 01 02:02:52
  TRACK 147 AUDIO
    TITLE "2:cjc143_0474"
    INDEX 01 02:02:67
  TRACK 148 AUDIO
    TITLE "0:"
    INDEX 01 02:04:06
  TRACK 149 AUDIO
    TITLE "2:cjc143_0475"
    INDEX 01 02:04:19
  TRACK 150 AUDIO
    TITLE "0:"
    INDEX 01 02:05:31
